<mxfile host="app.diagrams.net" modified="2024-02-23T17:59:47.884Z" agent="Mozilla/5.0 (Macintosh; Intel Mac OS X 10_15_7) AppleWebKit/537.36 (KHTML, like Gecko) Chrome/122.0.0.0 Safari/537.36" etag="CM3JJ9Zkt0qYox-qfn0N" version="23.1.6" type="device">
  <diagram name="Page-1" id="SMsJNUzLmAWxk7h4z5Km">
    <mxGraphModel dx="2044" dy="606" grid="1" gridSize="10" guides="1" tooltips="1" connect="1" arrows="1" fold="1" page="1" pageScale="1" pageWidth="850" pageHeight="1100" math="0" shadow="0">
      <root>
        <mxCell id="0" />
        <mxCell id="1" parent="0" />
        <mxCell id="HsAfSYT1dLHXzTpbi4zP-74" value="" style="rounded=0;whiteSpace=wrap;html=1;" parent="1" vertex="1">
          <mxGeometry x="-670" y="115" width="1240" height="805" as="geometry" />
        </mxCell>
        <mxCell id="HsAfSYT1dLHXzTpbi4zP-1" value="AbstractBoard" style="swimlane;fontStyle=1;align=center;verticalAlign=top;childLayout=stackLayout;horizontal=1;startSize=26;horizontalStack=0;resizeParent=1;resizeParentMax=0;resizeLast=0;collapsible=1;marginBottom=0;whiteSpace=wrap;html=1;" parent="1" vertex="1">
          <mxGeometry x="379" y="439" width="150" height="130" as="geometry">
            <mxRectangle x="360" y="170" width="120" height="30" as="alternateBounds" />
          </mxGeometry>
        </mxCell>
        <mxCell id="HsAfSYT1dLHXzTpbi4zP-2" value="+ positionMap" style="text;strokeColor=none;fillColor=none;align=left;verticalAlign=top;spacingLeft=4;spacingRight=4;overflow=hidden;rotatable=0;points=[[0,0.5],[1,0.5]];portConstraint=eastwest;whiteSpace=wrap;html=1;" parent="HsAfSYT1dLHXzTpbi4zP-1" vertex="1">
          <mxGeometry y="26" width="150" height="34" as="geometry" />
        </mxCell>
        <mxCell id="HsAfSYT1dLHXzTpbi4zP-3" value="" style="line;strokeWidth=1;fillColor=none;align=left;verticalAlign=middle;spacingTop=-1;spacingLeft=3;spacingRight=3;rotatable=0;labelPosition=right;points=[];portConstraint=eastwest;strokeColor=inherit;" parent="HsAfSYT1dLHXzTpbi4zP-1" vertex="1">
          <mxGeometry y="60" width="150" height="8" as="geometry" />
        </mxCell>
        <mxCell id="HsAfSYT1dLHXzTpbi4zP-4" value="+ draw()&lt;br&gt;+ embedLogic()&lt;br&gt;+ getDestination()" style="text;strokeColor=none;fillColor=none;align=left;verticalAlign=top;spacingLeft=4;spacingRight=4;overflow=hidden;rotatable=0;points=[[0,0.5],[1,0.5]];portConstraint=eastwest;whiteSpace=wrap;html=1;" parent="HsAfSYT1dLHXzTpbi4zP-1" vertex="1">
          <mxGeometry y="68" width="150" height="62" as="geometry" />
        </mxCell>
        <mxCell id="HsAfSYT1dLHXzTpbi4zP-5" value="SnakeLadderBoardWidget" style="swimlane;fontStyle=1;align=center;verticalAlign=top;childLayout=stackLayout;horizontal=1;startSize=26;horizontalStack=0;resizeParent=1;resizeParentMax=0;resizeLast=0;collapsible=1;marginBottom=0;whiteSpace=wrap;html=1;" parent="1" vertex="1">
          <mxGeometry x="380" y="681" width="160" height="140" as="geometry">
            <mxRectangle x="360" y="170" width="120" height="30" as="alternateBounds" />
          </mxGeometry>
        </mxCell>
        <mxCell id="HsAfSYT1dLHXzTpbi4zP-6" value="+ positionMap&lt;br&gt;-&amp;nbsp; &lt;u&gt;_instance&lt;/u&gt;" style="text;strokeColor=none;fillColor=none;align=left;verticalAlign=top;spacingLeft=4;spacingRight=4;overflow=hidden;rotatable=0;points=[[0,0.5],[1,0.5]];portConstraint=eastwest;whiteSpace=wrap;html=1;" parent="HsAfSYT1dLHXzTpbi4zP-5" vertex="1">
          <mxGeometry y="26" width="160" height="34" as="geometry" />
        </mxCell>
        <mxCell id="HsAfSYT1dLHXzTpbi4zP-7" value="" style="line;strokeWidth=1;fillColor=none;align=left;verticalAlign=middle;spacingTop=-1;spacingLeft=3;spacingRight=3;rotatable=0;labelPosition=right;points=[];portConstraint=eastwest;strokeColor=inherit;" parent="HsAfSYT1dLHXzTpbi4zP-5" vertex="1">
          <mxGeometry y="60" width="160" height="8" as="geometry" />
        </mxCell>
        <mxCell id="HsAfSYT1dLHXzTpbi4zP-8" value="+ draw()&lt;br&gt;+ embedLogic()&lt;br&gt;+ getDestination()&lt;br&gt;+ &lt;u&gt;getInstance&lt;/u&gt;" style="text;strokeColor=none;fillColor=none;align=left;verticalAlign=top;spacingLeft=4;spacingRight=4;overflow=hidden;rotatable=0;points=[[0,0.5],[1,0.5]];portConstraint=eastwest;whiteSpace=wrap;html=1;" parent="HsAfSYT1dLHXzTpbi4zP-5" vertex="1">
          <mxGeometry y="68" width="160" height="72" as="geometry" />
        </mxCell>
        <mxCell id="HsAfSYT1dLHXzTpbi4zP-25" value="«interface»&lt;br&gt;&lt;b&gt;FL_Widget&lt;/b&gt;" style="html=1;whiteSpace=wrap;" parent="1" vertex="1">
          <mxGeometry x="34" y="135" width="110" height="50" as="geometry" />
        </mxCell>
        <mxCell id="HsAfSYT1dLHXzTpbi4zP-27" value="DiceWidget" style="swimlane;fontStyle=1;align=center;verticalAlign=top;childLayout=stackLayout;horizontal=1;startSize=26;horizontalStack=0;resizeParent=1;resizeParentMax=0;resizeLast=0;collapsible=1;marginBottom=0;whiteSpace=wrap;html=1;" parent="1" vertex="1">
          <mxGeometry x="170" y="440" width="160" height="130" as="geometry">
            <mxRectangle x="360" y="170" width="120" height="30" as="alternateBounds" />
          </mxGeometry>
        </mxCell>
        <mxCell id="HsAfSYT1dLHXzTpbi4zP-28" value="-&amp;nbsp; &lt;u&gt;_instance&lt;/u&gt;" style="text;strokeColor=none;fillColor=none;align=left;verticalAlign=top;spacingLeft=4;spacingRight=4;overflow=hidden;rotatable=0;points=[[0,0.5],[1,0.5]];portConstraint=eastwest;whiteSpace=wrap;html=1;" parent="HsAfSYT1dLHXzTpbi4zP-27" vertex="1">
          <mxGeometry y="26" width="160" height="24" as="geometry" />
        </mxCell>
        <mxCell id="HsAfSYT1dLHXzTpbi4zP-29" value="" style="line;strokeWidth=1;fillColor=none;align=left;verticalAlign=middle;spacingTop=-1;spacingLeft=3;spacingRight=3;rotatable=0;labelPosition=right;points=[];portConstraint=eastwest;strokeColor=inherit;" parent="HsAfSYT1dLHXzTpbi4zP-27" vertex="1">
          <mxGeometry y="50" width="160" height="8" as="geometry" />
        </mxCell>
        <mxCell id="HsAfSYT1dLHXzTpbi4zP-30" value="+ draw()&lt;br&gt;+ setDiceImage()&lt;br&gt;+ roll()&lt;br&gt;+ &lt;u&gt;getInstance&lt;/u&gt;" style="text;strokeColor=none;fillColor=none;align=left;verticalAlign=top;spacingLeft=4;spacingRight=4;overflow=hidden;rotatable=0;points=[[0,0.5],[1,0.5]];portConstraint=eastwest;whiteSpace=wrap;html=1;" parent="HsAfSYT1dLHXzTpbi4zP-27" vertex="1">
          <mxGeometry y="58" width="160" height="72" as="geometry" />
        </mxCell>
        <mxCell id="HsAfSYT1dLHXzTpbi4zP-31" value="ScoreBoardWidget" style="swimlane;fontStyle=1;align=center;verticalAlign=top;childLayout=stackLayout;horizontal=1;startSize=26;horizontalStack=0;resizeParent=1;resizeParentMax=0;resizeLast=0;collapsible=1;marginBottom=0;whiteSpace=wrap;html=1;" parent="1" vertex="1">
          <mxGeometry x="-30" y="440" width="160" height="120" as="geometry">
            <mxRectangle x="360" y="170" width="120" height="30" as="alternateBounds" />
          </mxGeometry>
        </mxCell>
        <mxCell id="HsAfSYT1dLHXzTpbi4zP-32" value="-&amp;nbsp; &lt;u&gt;_instance&lt;/u&gt;" style="text;strokeColor=none;fillColor=none;align=left;verticalAlign=top;spacingLeft=4;spacingRight=4;overflow=hidden;rotatable=0;points=[[0,0.5],[1,0.5]];portConstraint=eastwest;whiteSpace=wrap;html=1;" parent="HsAfSYT1dLHXzTpbi4zP-31" vertex="1">
          <mxGeometry y="26" width="160" height="24" as="geometry" />
        </mxCell>
        <mxCell id="HsAfSYT1dLHXzTpbi4zP-33" value="" style="line;strokeWidth=1;fillColor=none;align=left;verticalAlign=middle;spacingTop=-1;spacingLeft=3;spacingRight=3;rotatable=0;labelPosition=right;points=[];portConstraint=eastwest;strokeColor=inherit;" parent="HsAfSYT1dLHXzTpbi4zP-31" vertex="1">
          <mxGeometry y="50" width="160" height="8" as="geometry" />
        </mxCell>
        <mxCell id="HsAfSYT1dLHXzTpbi4zP-34" value="+ draw()&lt;br&gt;+ setMessage()&lt;br&gt;+ &lt;u&gt;getInstance&lt;/u&gt;" style="text;strokeColor=none;fillColor=none;align=left;verticalAlign=top;spacingLeft=4;spacingRight=4;overflow=hidden;rotatable=0;points=[[0,0.5],[1,0.5]];portConstraint=eastwest;whiteSpace=wrap;html=1;" parent="HsAfSYT1dLHXzTpbi4zP-31" vertex="1">
          <mxGeometry y="58" width="160" height="62" as="geometry" />
        </mxCell>
        <mxCell id="HsAfSYT1dLHXzTpbi4zP-36" value="Extends" style="endArrow=block;endSize=16;endFill=0;html=1;rounded=0;entryX=0.533;entryY=1.032;entryDx=0;entryDy=0;entryPerimeter=0;exitX=0.5;exitY=0;exitDx=0;exitDy=0;" parent="1" source="HsAfSYT1dLHXzTpbi4zP-5" target="HsAfSYT1dLHXzTpbi4zP-4" edge="1">
          <mxGeometry width="160" relative="1" as="geometry">
            <mxPoint x="330" y="390" as="sourcePoint" />
            <mxPoint x="490" y="390" as="targetPoint" />
          </mxGeometry>
        </mxCell>
        <mxCell id="HsAfSYT1dLHXzTpbi4zP-44" value="" style="endArrow=none;dashed=1;html=1;rounded=0;exitX=0.456;exitY=0.008;exitDx=0;exitDy=0;exitPerimeter=0;" parent="1" source="HsAfSYT1dLHXzTpbi4zP-31" edge="1">
          <mxGeometry width="50" height="50" relative="1" as="geometry">
            <mxPoint x="180" y="360" as="sourcePoint" />
            <mxPoint x="240" y="260" as="targetPoint" />
            <Array as="points">
              <mxPoint x="43" y="260" />
            </Array>
          </mxGeometry>
        </mxCell>
        <mxCell id="HsAfSYT1dLHXzTpbi4zP-48" value="" style="endArrow=none;dashed=1;html=1;rounded=0;exitX=0.456;exitY=-0.023;exitDx=0;exitDy=0;exitPerimeter=0;" parent="1" source="HsAfSYT1dLHXzTpbi4zP-27" edge="1">
          <mxGeometry width="50" height="50" relative="1" as="geometry">
            <mxPoint x="53" y="451" as="sourcePoint" />
            <mxPoint x="240" y="260" as="targetPoint" />
            <Array as="points" />
          </mxGeometry>
        </mxCell>
        <mxCell id="HsAfSYT1dLHXzTpbi4zP-49" value="" style="endArrow=none;dashed=1;html=1;rounded=0;exitX=0.5;exitY=0;exitDx=0;exitDy=0;" parent="1" source="HsAfSYT1dLHXzTpbi4zP-1" edge="1">
          <mxGeometry width="50" height="50" relative="1" as="geometry">
            <mxPoint x="443" y="362" as="sourcePoint" />
            <mxPoint x="240" y="260" as="targetPoint" />
            <Array as="points">
              <mxPoint x="454" y="260" />
              <mxPoint x="240" y="260" />
            </Array>
          </mxGeometry>
        </mxCell>
        <mxCell id="HsAfSYT1dLHXzTpbi4zP-52" value="&lt;p style=&quot;margin:0px;margin-top:4px;text-align:center;&quot;&gt;&lt;b&gt;BoardGameWidget&lt;/b&gt;&lt;br&gt;&lt;/p&gt;&lt;hr size=&quot;1&quot;&gt;&lt;p style=&quot;margin:0px;margin-left:4px;&quot;&gt;- board&lt;/p&gt;&lt;p style=&quot;margin:0px;margin-left:4px;&quot;&gt;- dice&lt;/p&gt;&lt;p style=&quot;margin:0px;margin-left:4px;&quot;&gt;- scoreBoard&lt;/p&gt;&lt;hr size=&quot;1&quot;&gt;&lt;p style=&quot;margin:0px;margin-left:4px;&quot;&gt;+ CreateGame()&lt;/p&gt;&lt;p style=&quot;margin:0px;margin-left:4px;&quot;&gt;- CreateBoard()&lt;/p&gt;&lt;p style=&quot;margin:0px;margin-left:4px;&quot;&gt;- CreateDice()&lt;/p&gt;&lt;p style=&quot;margin:0px;margin-left:4px;&quot;&gt;- CreateScoreBoard()&lt;/p&gt;" style="verticalAlign=top;align=left;overflow=fill;html=1;whiteSpace=wrap;" parent="1" vertex="1">
          <mxGeometry x="-365" y="394" width="170" height="150" as="geometry" />
        </mxCell>
        <mxCell id="gNm0_VVW3XgfJPOKVpQ8-4" value="" style="edgeStyle=orthogonalEdgeStyle;rounded=0;orthogonalLoop=1;jettySize=auto;html=1;" parent="1" source="HsAfSYT1dLHXzTpbi4zP-53" target="gNm0_VVW3XgfJPOKVpQ8-2" edge="1">
          <mxGeometry relative="1" as="geometry" />
        </mxCell>
        <mxCell id="gNm0_VVW3XgfJPOKVpQ8-5" value="Uses" style="edgeLabel;html=1;align=center;verticalAlign=middle;resizable=0;points=[];" parent="gNm0_VVW3XgfJPOKVpQ8-4" vertex="1" connectable="0">
          <mxGeometry x="-0.0149" y="-2" relative="1" as="geometry">
            <mxPoint y="-10" as="offset" />
          </mxGeometry>
        </mxCell>
        <mxCell id="HsAfSYT1dLHXzTpbi4zP-53" value="&lt;p style=&quot;margin:0px;margin-top:4px;text-align:center;&quot;&gt;&lt;b&gt;SnakeLadderGameWidget&lt;/b&gt;&lt;/p&gt;&lt;hr size=&quot;1&quot;&gt;&lt;p style=&quot;margin:0px;margin-left:4px;&quot;&gt;- board&lt;/p&gt;&lt;p style=&quot;margin:0px;margin-left:4px;&quot;&gt;- dice&lt;/p&gt;&lt;p style=&quot;margin:0px;margin-left:4px;&quot;&gt;- scoreBoard&lt;/p&gt;&lt;hr size=&quot;1&quot;&gt;&lt;p style=&quot;margin:0px;margin-left:4px;&quot;&gt;&lt;span style=&quot;background-color: initial;&quot;&gt;- CreateBoard()&lt;/span&gt;&lt;br&gt;&lt;/p&gt;&lt;p style=&quot;margin:0px;margin-left:4px;&quot;&gt;- CreateDice()&lt;/p&gt;&lt;p style=&quot;margin:0px;margin-left:4px;&quot;&gt;- CreateScoreBoard()&lt;/p&gt;" style="verticalAlign=top;align=left;overflow=fill;html=1;whiteSpace=wrap;" parent="1" vertex="1">
          <mxGeometry x="-373" y="644" width="190" height="156" as="geometry" />
        </mxCell>
        <mxCell id="HsAfSYT1dLHXzTpbi4zP-54" value="" style="endArrow=none;dashed=1;html=1;rounded=0;exitX=0.5;exitY=0;exitDx=0;exitDy=0;" parent="1" source="HsAfSYT1dLHXzTpbi4zP-52" edge="1">
          <mxGeometry width="50" height="50" relative="1" as="geometry">
            <mxPoint x="-267" y="291" as="sourcePoint" />
            <mxPoint x="40" y="260" as="targetPoint" />
            <Array as="points">
              <mxPoint x="-280" y="260" />
            </Array>
          </mxGeometry>
        </mxCell>
        <mxCell id="HsAfSYT1dLHXzTpbi4zP-55" value="Extends" style="endArrow=block;endSize=16;endFill=0;html=1;rounded=0;exitX=0.5;exitY=0;exitDx=0;exitDy=0;" parent="1" source="HsAfSYT1dLHXzTpbi4zP-53" target="HsAfSYT1dLHXzTpbi4zP-52" edge="1">
          <mxGeometry width="160" relative="1" as="geometry">
            <mxPoint x="-274.59000000000003" y="632" as="sourcePoint" />
            <mxPoint x="-276" y="550" as="targetPoint" />
          </mxGeometry>
        </mxCell>
        <mxCell id="HsAfSYT1dLHXzTpbi4zP-56" value="&lt;b&gt;Client&lt;/b&gt;" style="html=1;whiteSpace=wrap;" parent="1" vertex="1">
          <mxGeometry x="-610" y="391" width="110" height="50" as="geometry" />
        </mxCell>
        <mxCell id="HsAfSYT1dLHXzTpbi4zP-57" style="edgeStyle=orthogonalEdgeStyle;rounded=0;orthogonalLoop=1;jettySize=auto;html=1;entryX=-0.003;entryY=0.149;entryDx=0;entryDy=0;entryPerimeter=0;" parent="1" source="HsAfSYT1dLHXzTpbi4zP-56" target="HsAfSYT1dLHXzTpbi4zP-52" edge="1">
          <mxGeometry relative="1" as="geometry" />
        </mxCell>
        <mxCell id="HsAfSYT1dLHXzTpbi4zP-62" value="Uses" style="edgeLabel;html=1;align=center;verticalAlign=middle;resizable=0;points=[];" parent="HsAfSYT1dLHXzTpbi4zP-57" vertex="1" connectable="0">
          <mxGeometry x="-0.2977" y="4" relative="1" as="geometry">
            <mxPoint x="12" y="-4" as="offset" />
          </mxGeometry>
        </mxCell>
        <mxCell id="HsAfSYT1dLHXzTpbi4zP-59" value="Dependency" style="endArrow=open;endSize=12;dashed=1;html=1;rounded=0;entryX=-0.006;entryY=0.277;entryDx=0;entryDy=0;entryPerimeter=0;" parent="1" target="HsAfSYT1dLHXzTpbi4zP-6" edge="1">
          <mxGeometry x="-0.0284" y="8" width="160" relative="1" as="geometry">
            <mxPoint x="-183" y="720" as="sourcePoint" />
            <mxPoint x="-23" y="720" as="targetPoint" />
            <mxPoint as="offset" />
          </mxGeometry>
        </mxCell>
        <mxCell id="HsAfSYT1dLHXzTpbi4zP-60" value="Dependency" style="endArrow=open;endSize=12;dashed=1;html=1;rounded=0;entryX=0.3;entryY=1.037;entryDx=0;entryDy=0;entryPerimeter=0;" parent="1" target="HsAfSYT1dLHXzTpbi4zP-34" edge="1">
          <mxGeometry width="160" relative="1" as="geometry">
            <mxPoint x="20" y="720" as="sourcePoint" />
            <mxPoint x="20" y="570" as="targetPoint" />
          </mxGeometry>
        </mxCell>
        <mxCell id="HsAfSYT1dLHXzTpbi4zP-61" value="Dependency" style="endArrow=open;endSize=12;dashed=1;html=1;rounded=0;" parent="1" edge="1">
          <mxGeometry width="160" relative="1" as="geometry">
            <mxPoint x="280" y="720" as="sourcePoint" />
            <mxPoint x="280" y="570" as="targetPoint" />
          </mxGeometry>
        </mxCell>
        <mxCell id="HsAfSYT1dLHXzTpbi4zP-63" value="" style="endArrow=block;dashed=1;endFill=0;endSize=12;html=1;rounded=0;entryX=0.5;entryY=1;entryDx=0;entryDy=0;" parent="1" target="HsAfSYT1dLHXzTpbi4zP-25" edge="1">
          <mxGeometry width="160" relative="1" as="geometry">
            <mxPoint x="89" y="260" as="sourcePoint" />
            <mxPoint x="150" y="230" as="targetPoint" />
          </mxGeometry>
        </mxCell>
        <mxCell id="HsAfSYT1dLHXzTpbi4zP-64" value="Implements" style="text;html=1;align=center;verticalAlign=middle;resizable=0;points=[];autosize=1;strokeColor=none;fillColor=none;" parent="1" vertex="1">
          <mxGeometry x="44" y="208" width="90" height="30" as="geometry" />
        </mxCell>
        <mxCell id="HsAfSYT1dLHXzTpbi4zP-65" value="Implements" style="text;html=1;align=center;verticalAlign=middle;resizable=0;points=[];autosize=1;strokeColor=none;fillColor=none;" parent="1" vertex="1">
          <mxGeometry x="-10" y="330" width="90" height="30" as="geometry" />
        </mxCell>
        <mxCell id="HsAfSYT1dLHXzTpbi4zP-66" value="Implements" style="text;html=1;align=center;verticalAlign=middle;resizable=0;points=[];autosize=1;strokeColor=none;fillColor=none;" parent="1" vertex="1">
          <mxGeometry x="190" y="330" width="90" height="30" as="geometry" />
        </mxCell>
        <mxCell id="HsAfSYT1dLHXzTpbi4zP-67" value="Implements" style="text;html=1;align=center;verticalAlign=middle;resizable=0;points=[];autosize=1;strokeColor=none;fillColor=none;" parent="1" vertex="1">
          <mxGeometry x="409" y="330" width="90" height="30" as="geometry" />
        </mxCell>
        <mxCell id="HsAfSYT1dLHXzTpbi4zP-68" value="Implements" style="text;html=1;align=center;verticalAlign=middle;resizable=0;points=[];autosize=1;strokeColor=none;fillColor=none;" parent="1" vertex="1">
          <mxGeometry x="-330" y="320" width="90" height="30" as="geometry" />
        </mxCell>
        <mxCell id="HsAfSYT1dLHXzTpbi4zP-69" value="&lt;p style=&quot;margin:0px;margin-top:4px;text-align:center;&quot;&gt;&lt;b&gt;PlayerWidget&lt;/b&gt;&lt;/p&gt;&lt;hr size=&quot;1&quot;&gt;&lt;div style=&quot;height:2px;&quot;&gt;+ getPosition()&lt;/div&gt;&lt;div style=&quot;height:2px;&quot;&gt;&lt;br&gt;&lt;/div&gt;&lt;div style=&quot;height:2px;&quot;&gt;&lt;br&gt;&lt;/div&gt;&lt;div style=&quot;height:2px;&quot;&gt;&lt;br&gt;&lt;/div&gt;&lt;div style=&quot;height:2px;&quot;&gt;&lt;span style=&quot;white-space: pre;&quot;&gt;&#x9;&lt;/span&gt;&lt;br&gt;&lt;/div&gt;&lt;div style=&quot;height:2px;&quot;&gt;&lt;br&gt;&lt;/div&gt;&lt;div style=&quot;height:2px;&quot;&gt;+ updateCordinates()&lt;br&gt;+ updatePosition()&lt;/div&gt;&lt;div style=&quot;height:2px;&quot;&gt;&lt;br&gt;&lt;/div&gt;&lt;div style=&quot;height:2px;&quot;&gt;&lt;br&gt;&lt;/div&gt;" style="verticalAlign=top;align=left;overflow=fill;html=1;whiteSpace=wrap;" parent="1" vertex="1">
          <mxGeometry x="-170" y="382" width="130" height="98" as="geometry" />
        </mxCell>
        <mxCell id="HsAfSYT1dLHXzTpbi4zP-70" value="" style="endArrow=none;dashed=1;html=1;rounded=0;" parent="1" edge="1">
          <mxGeometry width="50" height="50" relative="1" as="geometry">
            <mxPoint x="-110" y="380" as="sourcePoint" />
            <mxPoint x="-110" y="260" as="targetPoint" />
          </mxGeometry>
        </mxCell>
        <mxCell id="HsAfSYT1dLHXzTpbi4zP-73" value="Implements" style="text;html=1;align=center;verticalAlign=middle;resizable=0;points=[];autosize=1;strokeColor=none;fillColor=none;" parent="1" vertex="1">
          <mxGeometry x="-160" y="300" width="90" height="30" as="geometry" />
        </mxCell>
        <mxCell id="gNm0_VVW3XgfJPOKVpQ8-1" value="&lt;p style=&quot;margin:0px;margin-top:4px;text-align:center;&quot;&gt;&lt;b&gt;SoundDriver&lt;/b&gt;&lt;/p&gt;&lt;hr size=&quot;1&quot;&gt;&lt;p style=&quot;margin:0px;margin-left:4px;&quot;&gt;&lt;br&gt;&lt;/p&gt;&lt;p style=&quot;margin:0px;margin-left:4px;&quot;&gt;+ PlaySound()&lt;/p&gt;" style="verticalAlign=top;align=left;overflow=fill;html=1;whiteSpace=wrap;" parent="1" vertex="1">
          <mxGeometry x="-605" y="498" width="152" height="80" as="geometry" />
        </mxCell>
        <mxCell id="gNm0_VVW3XgfJPOKVpQ8-2" value="&lt;p style=&quot;margin:0px;margin-top:4px;text-align:center;&quot;&gt;&lt;b&gt;SnakeLadderGameSound&lt;/b&gt;&lt;/p&gt;&lt;hr size=&quot;1&quot;&gt;&lt;p style=&quot;margin:0px;margin-left:4px;&quot;&gt;&lt;span style=&quot;background-color: initial;&quot;&gt;+ PlaySound()&lt;/span&gt;&lt;/p&gt;&lt;p style=&quot;margin:0px;margin-left:4px;&quot;&gt;- PlaySound_MAC()&lt;/p&gt;&lt;p style=&quot;margin:0px;margin-left:4px;&quot;&gt;- PlaySound_linux()&lt;/p&gt;" style="verticalAlign=top;align=left;overflow=fill;html=1;whiteSpace=wrap;" parent="1" vertex="1">
          <mxGeometry x="-620" y="678" width="180" height="88" as="geometry" />
        </mxCell>
        <mxCell id="gNm0_VVW3XgfJPOKVpQ8-3" value="Extends" style="endArrow=block;endSize=16;endFill=0;html=1;rounded=0;exitX=0.5;exitY=0;exitDx=0;exitDy=0;" parent="1" source="gNm0_VVW3XgfJPOKVpQ8-2" target="gNm0_VVW3XgfJPOKVpQ8-1" edge="1">
          <mxGeometry width="160" relative="1" as="geometry">
            <mxPoint x="-521.59" y="718" as="sourcePoint" />
            <mxPoint x="-523" y="636" as="targetPoint" />
          </mxGeometry>
        </mxCell>
      </root>
    </mxGraphModel>
  </diagram>
</mxfile>
